HIERARCHY
ROOT Hips
{
	OFFSET 15.585500 22.159004 44.358299
	CHANNELS 6 Xposition Yposition Zposition Zrotation Xrotation Yrotation
	JOINT Chest
	{
		OFFSET -0.128500 0.160400 6.566002
		CHANNELS 6 Xposition Yposition Zposition Zrotation Xrotation Yrotation
		JOINT Chest2
		{
			OFFSET 0.000000 0.000000 3.554802
			CHANNELS 6 Xposition Yposition Zposition Zrotation Xrotation Yrotation
			JOINT Neck
			{
				OFFSET 0.000000 0.000000 8.267998
				CHANNELS 6 Xposition Yposition Zposition Zrotation Xrotation Yrotation
				JOINT Head
				{
					OFFSET 0.000000 0.000002 2.173897
					CHANNELS 6 Xposition Yposition Zposition Zrotation Xrotation Yrotation
					End Site
					{
						OFFSET 0.000000 0.000000 7.718697
					}
				}
			}
			JOINT LeftCollar
			{
				OFFSET 2.057500 0.117599 5.946301
				CHANNELS 6 Xposition Yposition Zposition Zrotation Xrotation Yrotation
				JOINT LeftShoulder
				{
					OFFSET 4.957699 0.000000 0.000000
					CHANNELS 6 Xposition Yposition Zposition Zrotation Xrotation Yrotation
					JOINT LeftElbow
					{
						OFFSET 0.000000 0.000000 -8.465500
						CHANNELS 6 Xposition Yposition Zposition Zrotation Xrotation Yrotation
						JOINT LeftWrist
						{
							OFFSET 0.000000 -0.000002 -14.594898
							CHANNELS 6 Xposition Yposition Zposition Zrotation Xrotation Yrotation
							End Site
							{
								OFFSET 0.000000 0.000000 -2.173901
							}
						}
					}
				}
			}
			JOINT RightCollar
			{
				OFFSET -3.048500 -0.728800 6.604099
				CHANNELS 6 Xposition Yposition Zposition Zrotation Xrotation Yrotation
				JOINT RightShoulder
				{
					OFFSET -3.710299 0.000000 0.000000
					CHANNELS 6 Xposition Yposition Zposition Zrotation Xrotation Yrotation
					JOINT RightElbow
					{
						OFFSET 0.000000 0.000000 -10.450901
						CHANNELS 6 Xposition Yposition Zposition Zrotation Xrotation Yrotation
						JOINT RightWrist
						{
							OFFSET 0.000000 0.000000 -12.539200
							CHANNELS 6 Xposition Yposition Zposition Zrotation Xrotation Yrotation
							End Site
							{
								OFFSET 0.000000 -0.000002 -2.173901
							}
						}
					}
				}
			}
		}
	}
	JOINT LeftHip
	{
		OFFSET 2.442599 -0.601400 -2.767502
		CHANNELS 6 Xposition Yposition Zposition Zrotation Xrotation Yrotation
		JOINT LeftKnee
		{
			OFFSET 0.000000 -0.000002 -17.033703
			CHANNELS 6 Xposition Yposition Zposition Zrotation Xrotation Yrotation
			JOINT LeftAnkle
			{
				OFFSET 0.000000 -0.000002 -19.318800
				CHANNELS 6 Xposition Yposition Zposition Zrotation Xrotation Yrotation
				End Site
				{
					OFFSET 0.000000 -8.281900 0.000000
				}
			}
		}
	}
	JOINT RightHip
	{
		OFFSET -3.126200 -0.601400 -2.283501
		CHANNELS 6 Xposition Yposition Zposition Zrotation Xrotation Yrotation
		JOINT RightKnee
		{
			OFFSET 0.000000 -0.000002 -16.919401
			CHANNELS 6 Xposition Yposition Zposition Zrotation Xrotation Yrotation
			JOINT RightAnkle
			{
				OFFSET 0.000000 -0.000002 -18.035900
				CHANNELS 6 Xposition Yposition Zposition Zrotation Xrotation Yrotation
				End Site
				{
					OFFSET 0.000000 -9.230099 0.000000
				}
			}
		}
	}
}
MOTION
Frames: 5
Frame Time: 0.041667
20.321903 22.904308 18.440105 -35.108675 48.133644 -20.886910 -0.128501 0.160400 6.566001 49.722230 12.960151 9.222138 0.000002 0.000000 3.554809 -32.625710 -4.720808 -4.523666 -0.000002 0.000001 8.268004 54.040754 -2.685078 -9.968174 -0.000002 0.000003 2.173895 1.694444 4.960215 5.615790 2.057506 0.117604 5.946305 3.437229 -20.558133 24.353133 4.957695 0.000003 0.000003 -20.835764 3.819362 -96.878481 0.000001 0.000001 -8.465508 1340.666249 -210.284026 1015.730218 0.000001 0.000002 -14.594897 -1186.071311 -30.327891 -476.027849 -3.048502 -0.728794 6.604103 -52.214751 -51.275176 -59.373386 -3.710300 -0.000002 0.000001 84.265266 5.616456 -11.573662 0.000002 0.000013 -10.450896 1227.004470 -97.212334 1222.668666 0.000010 0.000004 -12.539202 40.717025 162.427731 -298.572485 2.442597 -0.601396 -2.767505 100.249309 -23.483814 125.526842 0.000000 -0.000002 -17.033707 -495.673877 -35.337124 508.816363 0.000001 0.000001 -19.318802 -53.431781 106.294805 371.726352 -3.126205 -0.601398 -2.283503 -132.062008 -20.413412 -101.996793 0.000001 -0.000003 -16.919397 513.006001 39.666423 -172.776670 -0.000003 -0.000001 -18.035894 184.221731 39.887270 -47.508176
20.232700 22.726002 18.704800 -36.212956 47.234463 -20.157705 -0.128501 0.160396 6.566004 50.371778 12.652330 8.455907 -0.000001 -0.000001 3.554804 -34.023604 -4.787688 -4.533525 -0.000004 -0.000005 8.267998 53.335445 -3.528474 -10.809170 0.000003 0.000005 2.173897 1.671144 5.006597 5.391222 2.057503 0.117601 5.946310 5.815575 -19.211106 23.773949 4.957696 0.000004 0.000001 -23.818972 4.484600 -96.460829 0.000001 0.000005 -8.465501 1342.643726 -208.953546 1015.390347 0.000006 0.000004 -14.594897 -1187.394400 -24.923437 -475.203472 -3.048503 -0.728796 6.604101 -70.356187 -48.034309 -73.890223 -3.710296 -0.000003 0.000006 90.527129 10.356338 -22.873848 -0.000000 0.000013 -10.450899 1233.264202 -93.806911 1225.251571 0.000008 0.000006 -12.539201 39.739912 162.190806 -299.853473 2.442595 -0.601396 -2.767501 99.813666 -23.655329 124.606870 -0.000000 -0.000002 -17.033703 -495.920856 -34.886533 508.283554 0.000000 -0.000005 -19.318804 -53.259636 105.758294 371.321322 -3.126199 -0.601403 -2.283499 -131.121682 -21.964410 -100.265073 0.000001 -0.000003 -16.919397 512.789730 39.650198 -172.229449 -0.000002 -0.000004 -18.035900 185.078333 39.826912 -47.528384
20.133900 22.546701 18.976202 -37.334128 46.285013 -19.393545 -0.128502 0.160401 6.566005 50.932816 12.284451 7.816494 -0.000000 0.000000 3.554811 -35.073967 -4.878857 -4.484591 -0.000005 -0.000001 8.267999 52.166362 -4.371593 -11.753730 0.000004 0.000007 2.173895 1.488862 5.005845 5.361075 2.057503 0.117603 5.946302 7.481024 -17.704969 23.060232 4.957693 0.000010 0.000005 -26.577407 5.030476 -96.317169 -0.000001 0.000006 -8.465503 1344.590384 -207.524575 1014.978132 0.000005 -0.000001 -14.594898 -1188.568756 -20.170215 -474.396034 -3.048502 -0.728801 6.604096 -76.613979 -47.886648 -78.594488 -3.710300 -0.000003 0.000005 90.537777 14.628605 -28.369290 0.000001 0.000011 -10.450893 1292.322826 -90.570999 1280.911930 0.000010 0.000003 -12.539202 38.778058 161.946913 -300.842458 2.442598 -0.601397 -2.767504 99.375776 -23.891537 123.631355 -0.000001 -0.000002 -17.033707 -496.163082 -34.439603 507.736483 0.000000 -0.000001 -19.318804 -53.124617 105.216107 370.956836 -3.126205 -0.601397 -2.283497 -130.044370 -23.676767 -98.362067 -0.000001 -0.000004 -16.919401 512.382541 39.656092 -171.630114 -0.000006 0.000000 -18.035896 185.978838 39.779797 -47.575071
20.025501 22.366606 19.252897 -38.468681 45.282191 -18.598554 -0.128500 0.160403 6.566006 51.370355 11.828404 7.384394 -0.000000 -0.000000 3.554805 -36.174038 -4.876203 -4.513137 -0.000006 0.000001 8.267995 50.958645 -5.126089 -12.744844 0.000001 0.000005 2.173896 1.954073 4.824020 4.099465 2.057503 0.117605 5.946303 9.029171 -17.244817 22.389294 4.957702 0.000008 0.000002 -28.568793 5.664163 -95.989525 0.000004 -0.000001 -8.465494 1345.486833 -205.993355 1014.902180 0.000001 -0.000001 -14.594898 -1189.421491 -15.694540 -473.424399 -3.048501 -0.728795 6.604101 -79.920378 -47.340461 -80.930713 -3.710300 -0.000002 0.000004 90.849658 18.551533 -31.810821 -0.000001 0.000004 -10.450910 1221.308420 -86.785634 1207.080645 0.000004 0.000004 -12.539204 37.894313 161.649937 -301.732404 2.442597 -0.601395 -2.767498 98.923221 -24.220826 122.655403 -0.000001 -0.000002 -17.033707 -496.360721 -33.934624 507.215640 -0.000001 -0.000005 -19.318806 -53.037877 104.671631 370.643630 -3.126204 -0.601400 -2.283503 -128.804937 -25.462271 -96.286748 0.000001 -0.000006 -16.919397 511.873883 39.678222 -170.998266 -0.000005 -0.000006 -18.035898 186.921131 39.748740 -47.650736
19.907402 22.185705 19.533501 -39.620609 44.221076 -17.838663 -0.128502 0.160399 6.566006 51.681443 11.319477 7.226482 0.000002 -0.000004 3.554806 -37.307251 -4.689353 -4.888625 -0.000009 -0.000002 8.267994 49.585654 -5.490661 -13.490654 0.000000 0.000001 2.173895 2.312551 4.374642 3.178132 2.057503 0.117606 5.946308 9.819357 -18.522749 21.629858 4.957701 0.000003 0.000005 -28.744168 5.815046 -95.049889 0.000000 0.000000 -8.465501 1344.339361 -204.387783 1015.512854 0.000007 0.000003 -14.594897 -1190.008450 -11.411442 -472.392494 -3.048501 -0.728796 6.604099 -78.985783 -50.682787 -79.443119 -3.710301 -0.000006 0.000008 87.125251 21.216101 -32.971884 -0.000001 0.000007 -10.450898 1226.756507 -83.759395 1210.513224 0.000005 0.000009 -12.539204 37.127153 161.330666 -302.510936 2.442598 -0.601399 -2.767508 98.454028 -24.579955 121.629441 -0.000001 -0.000001 -17.033705 -496.523935 -33.393034 506.699004 0.000000 -0.000001 -19.318804 -53.012855 104.128167 370.395640 -3.126204 -0.601403 -2.283499 -127.376553 -27.362096 -94.087509 0.000002 -0.000005 -16.919403 511.282061 39.742187 -170.354453 -0.000003 -0.000002 -18.035896 187.907711 39.738181 -47.761918
